Simulation
nRows=19
nColumns=15
endheader
time  TH_x TH_y TH_z SC_y  SC_z  SC_x  AC_y  AC_z  AC_x  GH_y  GH_z  GH_yy  EL_x  PS_y
0.0  0.000000  0.000000  0.000000  -31.696340759390083  1.5907267229426212  -0.49826445615081655  52.596357133354644  7.525410781408851  -6.449594436309117  11.794309963469882  4.564170187606191  6.309493577284014  22.8368085448493  0.000000
0.011899999999999999  0.000000  0.000000  0.000000  -31.750545628287764  1.592727153517793  -0.5142338209745114  52.50580983106419  7.543893861992813  -6.549656852478365  9.991300833259345  4.533403752629299  8.186499707450473  22.75283607894698  0.000000
0.023799999999999998  0.000000  0.000000  0.000000  -31.761710817232725  1.6351430009866132  -0.5177990140075182  52.42680436545486  7.548559061413531  -6.62356119099117  8.052402578765475  4.4856635708267625  10.314134013204427  22.710988481245078  0.000000
0.035699999999999996  0.000000  0.000000  0.000000  -31.77618414874141  1.670610171041755  -0.5057869714061481  52.36564603484659  7.53560536706013  -6.683111799406832  6.055045894793515  4.461466840484202  12.547390647566365  22.67290000511126  0.000000
0.047599999999999996  0.000000  0.000000  0.000000  -31.787723322850795  1.7018025058150967  -0.4842875255407078  52.32262555438639  7.50399488377216  -6.731234252095825  4.115016805585175  4.466025669237259  14.746428254911358  22.64566837798574  0.000000
0.0595  0.000000  0.000000  0.000000  -31.800765043784658  1.7291792135289141  -0.4544181795561931  52.2907395799887  7.452357184837447  -6.764006661026335  2.2746786257039786  4.504520973877261  16.85076813412746  22.63335516671836  0.000000
0.07139999999999999  0.000000  0.000000  0.000000  -31.815797648542897  1.7527718891493234  -0.41775361478631606  52.26758234872376  7.38142287425403  -6.782447397887775  0.610968817067253  4.5803737131475595  18.76579426693317  22.636878808926507  0.000000
0.0833  0.000000  0.000000  0.000000  -31.83517918273379  1.77305563330131  -0.3748160251904635  52.2517206726754  7.291554343385165  -6.786176825141355  -0.8441720691563016  4.697066794868226  20.448528611465257  22.656444579244724  0.000000
0.09519999999999999  0.000000  0.000000  0.000000  -31.858738803879298  1.7907751821439442  -0.3281890729584153  52.24236418894922  7.185874969388129  -6.776863203508852  -2.043386178628547  4.855719771029592  21.841329336149805  22.691613200289027  0.000000
0.10709999999999999  0.000000  0.000000  0.000000  -31.886956294119496  1.8062668526084618  -0.28203023404391986  52.23792882339824  7.0693767024218515  -6.754640744246842  -2.9797213090044714  5.057250907019772  22.931262752216128  22.741777885428945  0.000000
0.119  0.000000  0.000000  0.000000  -31.918688133523002  1.819384012912396  -0.24045181560540144  52.237046373401974  6.94828911586531  -6.722593979819863  -3.641978455839772  5.301003087836161  23.701770557556532  22.806184685790782  0.000000
0.1309  0.000000  0.000000  0.000000  -31.953593041127963  1.8307771695441588  -0.20332000441283263  52.23813470402762  6.8251986320477  -6.6857761061382615  -4.050795773977086  5.586297012801073  24.171300387164134  22.88461212732506  0.000000
0.14279999999999998  0.000000  0.000000  0.000000  -31.989598879299216  1.8421178699157938  -0.17049695439295834  52.24036411138681  6.702279340610916  -6.650465942330787  -4.228097712026674  5.911405671855098  24.35942304526329  22.976595756957863  0.000000
0.15469999999999998  0.000000  0.000000  0.000000  -32.026623581748765  1.854462908364559  -0.14103400382665232  52.24159410967038  6.581053607728794  -6.62008678670032  -4.234192310690334  6.2755192047499255  24.326615514113097  23.081209586174566  0.000000
0.1666  0.000000  0.000000  0.000000  -32.063782133327514  1.8682825233113727  -0.11434931137837603  52.24033367026689  6.463253977173526  -6.596243350451901  -4.133418479113159  6.677773453282842  24.13663854334923  23.196505855465343  0.000000
0.1785  0.000000  0.000000  0.000000  -32.10143602939103  1.884031725320462  -0.08947402614881171  52.23588560560778  6.3497842768525885  -6.578335013748839  -3.9925792231524784  7.118007378038378  23.857149818268457  23.320077806783978  0.000000
0.19039999999999999  0.000000  0.000000  0.000000  -32.1390011767868  1.9021139900900528  -0.0652727580394691  52.228696140288  6.241373649386547  -6.565499865560676  -3.858886041909449  7.595815434811303  23.535935151371923  23.449648067538934  0.000000
0.20229999999999998  0.000000  0.000000  0.000000  -32.17710792480935  1.922810732480442  -0.040325362204485515  52.219413745495714  6.13847131380054  -6.556364164955259  -3.766526232542363  8.11106216810073  23.209001124143853  23.583297110632245  0.000000
0.21419999999999997  0.000000  0.000000  0.000000  -32.21526931107908  1.9462599969847123  -0.013256477458922843  52.209332997920185  6.041576159883098  -6.550129204260991  -3.7303645833495653  8.663177234258812  22.892774649113832  23.719248899479755  0.000000
